# xmcd CD database file
#
# Track frame offsets:
#	150
#	11275
#	24852
#	36137
#	46228
#	61369
#	75892
#	89394
#	100122
#	114112
#	126279
#	137638
#	151325
#	161969
#	174570
#	189318
#	202621
#	215367
#
# Disc length: 3054 seconds
#
# Revision: 0
# Processed by: cddbd v1.5.1PL2 Copyright (c) Steve Scherf et al.
# Submitted via: CDex 1.51
#
DISCID=d20bec12
DTITLE=Hoagy Carmichael - Vocal Jazz
DYEAR=2001
DGENRE=Jazz
TTITLE0=Stardust
TTITLE1=Georgia On My Mind
TTITLE2=Hong Kong Blues
TTITLE3=Old Buttermilk Sky
TTITLE4=Rockin' Chair
TTITLE5=Lazy River
TTITLE6=Memphis In June
TTITLE7=The Old Music Master
TTITLE8=Washboard Blues
TTITLE9=One Morning In May
TTITLE10=Judy
TTITLE11=Lazybones
TTITLE12=Old Man Harlem
TTITLE13=My Resistance Is Low
TTITLE14=Moon Country
TTITLE15=Little Old Lady
TTITLE16=Put Yourself In My Place, Baby
TTITLE17=Sh-H The Old Man's Sleeping
EXTD=YEAR: 2001
EXTT0=
EXTT1=
EXTT2=
EXTT3=
EXTT4=
EXTT5=
EXTT6=
EXTT7=
EXTT8=
EXTT9=
EXTT10=
EXTT11=
EXTT12=
EXTT13=
EXTT14=
EXTT15=
EXTT16=
EXTT17=
PLAYORDER=
